<svg xmlns="http://www.w3.org/2000/svg" viewBox="0 0 32 32" fill="none">
  <!-- Background rounded square -->
  <rect width="32" height="32" rx="8" fill="#6366f1"/>

  <!-- Briefcase icon -->
  <path d="M11 13h10a2 2 0 0 1 2 2v7a2 2 0 0 1-2 2H11a2 2 0 0 1-2-2v-7a2 2 0 0 1 2-2z" fill="white" fill-opacity="0.95"/>
  <path d="M13 13v-1.5A1.5 1.5 0 0 1 14.5 10h3A1.5 1.5 0 0 1 19 11.5V13" stroke="white" stroke-width="1.5" stroke-linecap="round"/>
  <path d="M9 17.5h14" stroke="#6366f1" stroke-width="1.5" stroke-linecap="round"/>
  <rect x="14.5" y="16.5" width="3" height="2" rx="0.5" fill="#6366f1"/>
</svg>
